<svg id="svg" xmlns="http://www.w3.org/2000/svg" xmlns:xlink="http://www.w3.org/1999/xlink" width="400" height="205.71428571428572" viewBox="0, 0, 400,205.71428571428572"><g id="svgg"><path id="path0" d="M41.175 10.167 C 41.085 19.863,41.208 20.317,43.927 20.317 C 45.510 20.317,47.814 21.747,49.121 23.542 L 51.469 26.766 55.425 22.589 C 57.600 20.292,62.304 14.270,65.877 9.206 L 72.374 0.000 56.822 0.009 L 41.270 0.017 41.175 10.167 M77.521 1.205 C 76.262 2.002,75.621 4.917,75.500 10.392 C 75.403 14.803,74.872 20.035,74.321 22.017 C 73.384 25.387,73.541 25.594,76.729 25.192 C 79.185 24.882,80.802 25.640,82.512 27.904 C 84.885 31.046,84.885 31.046,87.688 28.539 C 90.381 26.131,109.206 1.630,109.206 0.533 C 109.206 -0.553,79.298 0.081,77.521 1.205 M248.889 0.654 C 248.889 1.608,256.542 15.268,259.419 19.449 L 261.880 23.025 264.734 20.343 C 266.304 18.869,268.332 17.831,269.240 18.037 C 270.457 18.314,270.813 16.696,270.596 11.875 C 270.427 8.115,270.904 4.965,271.720 4.460 C 272.757 3.819,272.739 3.101,271.652 1.792 C 270.223 0.069,248.889 -0.997,248.889 0.654 M276.825 1.021 C 276.825 1.912,283.288 12.323,286.045 15.873 C 286.656 16.660,287.528 16.298,288.340 14.921 C 289.061 13.698,290.965 12.698,292.573 12.698 C 295.250 12.698,295.484 12.166,295.367 6.357 L 295.238 0.016 286.032 0.008 C 280.968 0.004,276.825 0.460,276.825 1.021 M328.789 13.093 C 296.871 25.007,292.092 77.758,316.462 149.176 C 324.647 173.167,323.513 186.349,314.017 177.575 C 312.248 175.941,302.491 164.603,292.335 152.381 C 253.103 105.166,225.329 82.728,191.746 71.120 C 182.353 67.873,165.402 66.011,166.870 68.387 C 167.365 69.187,168.735 69.850,169.916 69.861 C 171.097 69.871,172.808 70.352,173.717 70.929 C 174.627 71.506,163.770 71.986,149.590 71.996 C 122.690 72.015,108.571 73.494,97.409 77.462 L 90.794 79.814 96.508 79.993 C 103.150 80.201,101.683 81.188,89.814 84.500 C 78.228 87.733,69.346 101.801,76.211 106.045 C 76.921 106.483,77.213 107.309,76.860 107.880 C 76.507 108.451,77.069 109.625,78.109 110.488 C 81.001 112.888,80.441 113.752,74.921 115.406 C 71.138 116.539,69.841 117.593,69.841 119.535 C 69.841 121.075,68.801 122.415,67.302 122.807 C 63.117 123.901,64.283 125.216,74.837 131.303 C 87.943 138.863,88.004 139.170,76.596 140.134 C 53.100 142.120,36.713 140.174,19.466 133.350 C 11.049 130.019,8.413 129.474,5.498 130.458 L 1.905 131.672 8.553 135.360 C 12.210 137.388,15.226 139.619,15.256 140.317 C 15.286 141.016,18.316 143.405,21.990 145.627 C 25.665 147.849,33.542 153.563,39.495 158.326 C 56.673 172.067,63.506 176.313,76.012 181.020 C 93.422 187.572,133.640 194.041,170.159 196.163 C 177.492 196.589,186.635 197.188,190.476 197.493 C 240.413 201.467,354.080 202.215,358.946 198.602 C 366.478 193.009,364.129 178.518,348.568 134.603 C 331.860 87.450,326.111 52.274,334.907 51.025 C 342.246 49.982,366.527 71.786,372.413 84.704 C 374.166 88.553,376.895 88.413,377.897 84.423 C 378.427 82.309,377.153 76.924,374.131 68.511 L 369.564 55.795 372.610 54.637 C 379.477 52.026,377.691 41.654,368.886 33.013 C 365.709 29.895,361.587 25.148,359.728 22.464 C 353.707 13.776,338.941 9.303,328.789 13.093 M114.286 204.444 C 112.954 205.305,114.863 205.654,120.635 205.606 C 126.410 205.557,128.126 205.208,126.349 204.444 C 122.876 202.952,116.595 202.952,114.286 204.444 " stroke="none" fill="#000000" fill-rule="evenodd"></path></g></svg>