<svg id="svg" xmlns="http://www.w3.org/2000/svg" xmlns:xlink="http://www.w3.org/1999/xlink" width="400" height="416.3636363636364" viewBox="0, 0, 400,416.3636363636364"><g id="svgg"><path id="path0" d="M119.078 87.911 C 89.745 101.571,80.200 146.304,104.159 157.826 C 108.704 160.012,109.091 161.047,109.091 171.008 C 109.091 188.319,116.008 183.004,120.188 162.481 C 122.152 152.837,122.030 149.501,119.285 137.847 C 113.557 113.523,122.239 99.689,141.601 102.286 C 172.865 106.479,171.399 143.003,138.879 170.104 C 87.940 212.557,76.213 241.610,94.965 278.902 L 98.527 285.986 101.907 278.436 C 103.766 274.283,107.271 268.232,109.696 264.988 C 113.078 260.465,114.305 256.119,114.961 246.334 C 116.290 226.528,120.319 219.735,145.954 194.082 C 178.999 161.013,188.840 138.716,181.679 113.138 C 174.902 88.934,143.798 76.400,119.078 87.911 M224.748 179.801 C 246.192 192.975,243.775 227.796,220.955 234.435 L 215.455 236.036 221.699 236.200 C 258.903 237.177,262.281 184.386,225.455 177.514 L 219.091 176.326 224.748 179.801 M253.170 186.817 C 266.754 213.436,249.289 244.545,220.761 244.545 C 207.188 244.545,207.336 244.446,215.000 248.443 C 257.069 270.381,293.830 204.817,253.463 179.844 L 247.834 176.362 253.170 186.817 M270.953 195.557 C 281.967 221.252,268.688 251.435,242.997 259.100 C 231.869 262.420,218.538 258.481,199.731 246.314 C 180.403 233.811,176.589 232.273,164.629 232.161 C 139.391 231.924,116.274 251.766,102.609 285.395 C 97.012 299.170,97.121 299.342,107.163 292.598 C 129.813 277.387,150.477 278.749,180.000 297.399 C 228.387 327.966,274.234 316.054,298.118 266.709 C 305.026 252.438,308.629 240.039,302.446 251.818 C 294.886 266.218,278.638 277.715,260.365 281.592 C 247.485 284.325,240.535 283.920,250.909 281.041 C 292.206 269.580,305.458 216.051,273.129 191.291 L 267.167 186.725 270.953 195.557 " stroke="none" fill="#000000" fill-rule="evenodd"></path></g></svg>