<svg id="svg" xmlns="http://www.w3.org/2000/svg" xmlns:xlink="http://www.w3.org/1999/xlink" width="400" height="291.4893617021276" viewBox="0, 0, 400,291.4893617021276"><g id="svgg"><path id="path0" d="M273.160 28.844 C 239.417 41.307,226.916 83.219,249.556 107.979 C 256.374 115.435,250.341 113.912,230.439 103.151 C 204.513 89.133,171.462 82.673,170.797 91.494 C 170.534 94.989,171.174 95.380,174.365 93.672 C 177.461 92.015,178.485 92.474,179.387 95.926 C 180.920 101.786,175.917 103.394,165.119 100.511 C 155.558 97.959,151.770 98.824,159.685 101.752 C 163.952 103.331,163.112 103.802,153.845 105.032 C 147.891 105.821,129.573 110.278,113.138 114.936 C 96.702 119.594,79.124 123.371,74.074 123.330 C 64.434 123.252,35.622 118.499,29.255 115.937 C 27.081 115.062,25.532 115.395,25.532 116.739 C 25.532 120.783,37.638 125.476,52.549 127.211 L 67.021 128.895 43.704 132.623 C 30.879 134.673,19.949 136.789,19.413 137.324 C 16.488 140.249,22.858 140.793,35.505 138.697 C 50.862 136.152,55.175 136.840,45.922 140.358 C 36.125 144.083,16.968 153.847,17.808 154.687 C 18.247 155.127,25.100 153.043,33.035 150.056 C 51.198 143.219,52.592 144.364,37.239 153.507 C 13.429 167.686,12.634 166.956,52.556 167.582 C 103.735 168.386,117.021 170.570,117.021 178.179 C 117.021 181.552,120.156 181.587,125.464 178.272 C 130.785 174.949,133.562 177.726,130.239 183.047 C 126.449 189.115,126.980 189.849,134.043 188.298 C 138.951 187.220,140.426 187.643,140.426 190.131 C 140.426 195.341,144.622 196.458,149.070 192.432 C 151.352 190.367,153.191 189.775,153.191 191.106 C 153.191 192.632,155.478 193.053,159.449 192.259 L 165.707 191.008 163.405 198.508 C 159.125 212.453,165.016 216.817,175.901 207.764 C 179.208 205.012,182.942 203.121,184.198 203.560 C 185.453 203.999,188.235 202.421,190.379 200.052 C 192.523 197.683,195.447 195.745,196.878 195.745 C 198.308 195.745,200.671 194.309,202.128 192.553 C 210.841 182.054,210.178 192.941,201.401 204.481 C 190.244 219.150,189.189 221.893,192.357 227.998 C 193.873 230.922,194.673 236.323,194.133 240.001 C 191.984 254.642,206.466 254.364,228.879 239.334 C 246.799 227.318,247.363 227.980,235.087 246.615 C 218.625 271.602,208.881 275.199,182.979 265.850 C 168.942 260.784,138.935 257.570,141.293 261.385 C 154.379 282.558,291.355 291.559,322.662 273.303 C 353.098 255.555,387.683 180.832,381.314 146.584 C 373.962 107.050,358.930 95.475,312.669 93.724 C 279.323 92.462,274.067 90.838,266.639 79.502 C 257.586 65.685,277.026 50.649,292.912 59.182 C 297.395 61.590,305.372 65.817,310.638 68.574 C 315.904 71.331,327.255 78.152,335.863 83.732 C 355.547 96.492,355.363 97.195,340.240 66.953 C 320.305 27.090,303.602 17.600,273.160 28.844 M0.000 194.606 C 0.000 201.083,0.957 206.383,2.128 206.383 C 3.298 206.383,4.255 204.890,4.255 203.066 C 4.255 201.242,5.255 200.367,6.476 201.121 C 11.475 204.211,14.966 197.834,11.322 192.272 C 3.821 180.824,0.000 181.611,0.000 194.606 M0.085 238.303 L 0.000 258.521 14.362 265.168 C 35.378 274.894,35.486 272.854,15.347 246.464 C 10.331 239.891,6.462 233.689,6.750 232.682 C 7.038 231.675,5.676 227.979,3.722 224.468 C 0.203 218.144,0.170 218.271,0.085 238.303 M9.574 288.123 C 3.444 291.024,3.862 291.151,20.106 291.317 C 30.776 291.426,36.275 290.744,35.000 289.471 C 31.284 285.759,16.252 284.962,9.574 288.123 " stroke="none" fill="#000000" fill-rule="evenodd"></path></g></svg>